<svg width="34" height="34" viewBox="0 0 34 34" fill="none" xmlns="http://www.w3.org/2000/svg">
<path d="M16.6667 14.1667L11.6667 9.16667V0H21.6667V9.16667L16.6667 14.1667ZM24.1667 21.6667L19.1667 16.6667L24.1667 11.6667H33.3333V21.6667H24.1667ZM0 21.6667V11.6667H9.16667L14.1667 16.6667L9.16667 21.6667H0ZM11.6667 33.3333V24.1667L16.6667 19.1667L21.6667 24.1667V33.3333H11.6667ZM16.6667 9.41667L18.3333 7.75V3.33333H15V7.75L16.6667 9.41667ZM3.33333 18.3333H7.75L9.41667 16.6667L7.75 15H3.33333V18.3333ZM25.5833 18.3333H30V15H25.5833L23.9167 16.6667L25.5833 18.3333Z" fill="url(#paint0_linear_7_265)"/>
<defs>
<linearGradient id="paint0_linear_7_265" x1="0" y1="0" x2="37.053" y2="4.83656" gradientUnits="userSpaceOnUse">
<stop stop-color="#15EED7"/>
<stop offset="1" stop-color="#1662EF"/>
</linearGradient>
</defs>
</svg>
