<svg width="40" height="40" viewBox="0 0 40 40" fill="none" xmlns="http://www.w3.org/2000/svg">
<path d="M31.7499 36L26.8749 31.1667L23.2083 34.8334L22.0416 33.6667C21.4027 33.0278 21.0833 32.2361 21.0833 31.2917C21.0833 30.3472 21.4027 29.5556 22.0416 28.9167L29.0833 21.875C29.7221 21.2361 30.5138 20.9167 31.4583 20.9167C32.4027 20.9167 33.1944 21.2361 33.8333 21.875L34.9999 23.0417L31.3333 26.7084L36.1666 31.5834C36.4999 31.9167 36.6666 32.3056 36.6666 32.75C36.6666 33.1945 36.4999 33.5834 36.1666 33.9167L34.0833 36C33.7499 36.3334 33.361 36.5 32.9166 36.5C32.4721 36.5 32.0833 36.3334 31.7499 36ZM36.6666 9.83335L17.7499 28.75L17.9583 28.9167C18.5971 29.5556 18.9166 30.3472 18.9166 31.2917C18.9166 32.2361 18.5971 33.0278 17.9583 33.6667L16.7916 34.8334L13.1249 31.1667L8.24992 36C7.91658 36.3334 7.5277 36.5 7.08325 36.5C6.63881 36.5 6.24992 36.3334 5.91659 36L3.83325 33.9167C3.49992 33.5834 3.33325 33.1945 3.33325 32.75C3.33325 32.3056 3.49992 31.9167 3.83325 31.5834L8.66658 26.7084L4.99992 23.0417L6.16659 21.875C6.80547 21.2361 7.59714 20.9167 8.54158 20.9167C9.48603 20.9167 10.2777 21.2361 10.9166 21.875L11.0833 22.0834L29.9999 3.16669H36.6666V9.83335ZM11.5833 18.0834L3.33325 9.83335V3.16669H9.99992L18.2499 11.4167L15.8749 13.75L8.62492 6.50002H6.66658V8.45835L13.9166 15.7084L11.5833 18.0834ZM15.4166 26.375L33.3333 8.45835V6.50002H31.3749L13.4583 24.4167L15.4166 26.375Z" fill="url(#paint0_linear_20_258)"/>
<defs>
<linearGradient id="paint0_linear_20_258" x1="3.33325" y1="3.16669" x2="40.3863" y2="8.00325" gradientUnits="userSpaceOnUse">
<stop stop-color="#15EED7"/>
<stop offset="1" stop-color="#1662EF"/>
</linearGradient>
</defs>
</svg>
