<svg width="40" height="40" viewBox="0 0 40 40" fill="none" xmlns="http://www.w3.org/2000/svg">
<path d="M4.31242 22.3541C3.65964 21.7014 3.33325 20.9166 3.33325 20C3.33325 19.0833 3.65964 18.2986 4.31242 17.6458C4.9652 16.993 5.74992 16.6666 6.66658 16.6666C7.58325 16.6666 8.36797 16.993 9.02075 17.6458C9.67353 18.2986 9.99992 19.0833 9.99992 20C9.99992 20.9166 9.67353 21.7014 9.02075 22.3541C8.36797 23.0069 7.58325 23.3333 6.66658 23.3333C5.74992 23.3333 4.9652 23.0069 4.31242 22.3541ZM9.41658 32.8333L7.08325 30.5L14.3333 23.25L16.6666 25.5833L9.41658 32.8333ZM14.4166 16.6666L7.16658 9.41665L9.49992 7.08331L16.7499 14.3333L14.4166 16.6666ZM17.6458 35.6875C16.993 35.0347 16.6666 34.25 16.6666 33.3333C16.6666 32.4166 16.993 31.6319 17.6458 30.9791C18.2985 30.3264 19.0833 30 19.9999 30C20.9166 30 21.7013 30.3264 22.3541 30.9791C23.0069 31.6319 23.3333 32.4166 23.3333 33.3333C23.3333 34.25 23.0069 35.0347 22.3541 35.6875C21.7013 36.3403 20.9166 36.6666 19.9999 36.6666C19.0833 36.6666 18.2985 36.3403 17.6458 35.6875ZM17.6458 9.02081C16.993 8.36803 16.6666 7.58331 16.6666 6.66665C16.6666 5.74998 16.993 4.96526 17.6458 4.31248C18.2985 3.6597 19.0833 3.33331 19.9999 3.33331C20.9166 3.33331 21.7013 3.6597 22.3541 4.31248C23.0069 4.96526 23.3333 5.74998 23.3333 6.66665C23.3333 7.58331 23.0069 8.36803 22.3541 9.02081C21.7013 9.67359 20.9166 9.99998 19.9999 9.99998C19.0833 9.99998 18.2985 9.67359 17.6458 9.02081ZM25.5833 16.75L23.2499 14.3333L30.5833 7.08331L32.9166 9.41665L25.5833 16.75ZM30.5833 32.8333L23.3333 25.5833L25.6666 23.25L32.9166 30.5L30.5833 32.8333ZM30.9791 22.3541C30.3263 21.7014 29.9999 20.9166 29.9999 20C29.9999 19.0833 30.3263 18.2986 30.9791 17.6458C31.6319 16.993 32.4166 16.6666 33.3333 16.6666C34.2499 16.6666 35.0346 16.993 35.6874 17.6458C36.3402 18.2986 36.6666 19.0833 36.6666 20C36.6666 20.9166 36.3402 21.7014 35.6874 22.3541C35.0346 23.0069 34.2499 23.3333 33.3333 23.3333C32.4166 23.3333 31.6319 23.0069 30.9791 22.3541Z" fill="url(#paint0_linear_20_255)"/>
<defs>
<linearGradient id="paint0_linear_20_255" x1="3.33325" y1="3.33331" x2="40.3863" y2="8.16987" gradientUnits="userSpaceOnUse">
<stop stop-color="#15EED7"/>
<stop offset="1" stop-color="#1662EF"/>
</linearGradient>
</defs>
</svg>
